<svg xmlns="http://www.w3.org/2000/svg" width="30" height="32.864" viewBox="0 0 30 32.864"><defs><style>.a{fill:#fff;}</style></defs><path class="a" d="M57,546.417A3.336,3.336,0,0,1,55.333,546l-.5-.283a25.284,25.284,0,0,1-12.833-22v-.234a3.333,3.333,0,0,1,1.667-2.916L55.333,514a3.33,3.33,0,0,1,3.333,0l11.667,6.567A3.333,3.333,0,0,1,72,523.483v.234a25.283,25.283,0,0,1-12.867,22l-.5.283A3.333,3.333,0,0,1,57,546.417Zm0-29.5-11.667,6.566v.234A21.916,21.916,0,0,0,56.5,542.8l.5.283.5-.283a21.915,21.915,0,0,0,11.167-19.083v-.234Z" transform="translate(-42 -513.553)"/></svg>