<svg xmlns="http://www.w3.org/2000/svg" width="23.333" height="30" viewBox="0 0 23.333 30"><defs><style>.a{fill:#fff;}</style></defs><g transform="translate(-99.333 -577)"><path class="a" d="M57,428.333a6.666,6.666,0,1,0-4.714-1.952A6.671,6.671,0,0,0,57,428.333Zm0-10a3.334,3.334,0,1,1-2.357.977A3.336,3.336,0,0,1,57,418.333Z" transform="translate(54 162)"/><path class="a" d="M57,431.667a11.667,11.667,0,0,0-11.667,11.666,1.667,1.667,0,1,0,3.333,0,8.333,8.333,0,0,1,16.667,0,1.667,1.667,0,1,0,3.333,0A11.667,11.667,0,0,0,57,431.667Z" transform="translate(54 162)"/></g></svg>