<svg xmlns="http://www.w3.org/2000/svg" width="26.667" height="33.15" viewBox="0 0 26.667 33.15"><defs><style>.a{fill:#fff;}</style></defs><g transform="translate(-97.667 -773.517)"><path class="a" d="M65.333,621.333H63.667v-3.15a6.667,6.667,0,0,0-13.333,0v3.15H48.667a5,5,0,0,0-5,5v13.334a5,5,0,0,0,5,5H65.333a5,5,0,0,0,5-5V626.333a5,5,0,0,0-5-5Zm-11.667-3.15a3.336,3.336,0,1,1,6.667,0v3.15H53.667ZM67,639.667a1.666,1.666,0,0,1-1.667,1.666H48.667A1.667,1.667,0,0,1,47,639.667V626.333a1.667,1.667,0,0,1,1.667-1.666H65.333A1.666,1.666,0,0,1,67,626.333Z" transform="translate(54 162)"/><path class="a" d="M57,628a5,5,0,1,0,3.535,1.464A5,5,0,0,0,57,628Zm0,6.667a1.666,1.666,0,1,1,1.179-.488A1.668,1.668,0,0,1,57,634.667Z" transform="translate(54 162)"/></g></svg>